<svg xmlns="http://www.w3.org/2000/svg" width="1000" height="1000" viewBox="0 0 1000 1000"><path fill="#e91703" d="M172.638 339.244c-.71-2.284-.9-4.394-1.251-6.723-4.178-27.711 9.076-56.106 29.66-74.292 2.087-1.844 4.085-3.791 6.093-5.748-1.522 2.894-3.864 6.149-5.542 9.238-7.05 12.981-7.758 21.081-8.764 35.029.518 7.526.436 12.275 2.283 19.718 8.804 35.489 41.73 48.439 43.478 86.393.727 15.786-2.911 19.218-3.934 31.369 15.751-19.062 24.2-36.909 22.01-62.194-.689-7.96-4.872-24.806-10.127-30.655l-.189-1.051c2.266-.558 6.847 5.76 8.275 7.365 26.626 29.935 26.741 74.155 4.317 106.483-8.314 12.995-19.973 22.91-29.876 34.609-12.836 15.164-25.244 38.132-27.486 58.063-2.278 20.241-.428 57.442 10.553 75.066-4.36-4.666-7.635-9.646-11.963-14.211-9.383-9.898-20.557-19.707-29.61-29.792-20.931-23.317-33.881-54.602-32.889-86.171.802-25.527 9.443-47.189 23.769-67.958-9.883 24.987-10.135 59.544 1.125 83.88 5.521 11.932 11.627 19.992 19.565 30.098-1.349-16.101-5.056-26.77-.995-44.03 7.693-32.693 33.409-46.461 27.064-84.354-5.01-29.924-29.171-39.985-35.566-70.132"/><path fill="#f13623" d="M172.638 339.244c-.71-2.284-.9-4.394-1.251-6.723-4.178-27.711 9.076-56.106 29.66-74.292 2.087-1.844 4.085-3.791 6.093-5.748-1.522 2.894-3.864 6.149-5.542 9.238-7.05 12.981-7.758 21.081-8.764 35.029-2.104-3.677.873-19.7 2.85-23.756 1.656-3.397 3.015-6.008 3.527-10.127l-.305-.953c-.853.171-2.152 1.757-3.044 2.694-14.775 15.498-23.414 35.065-24.407 56.503-.195 4.214 1.854 16.843 1.183 18.135"/><path fill="#e91703" d="M269.252 500.88c1.643 1.501 1.941 10.642 2.147 13.077a76.32 76.32 0 0 1-12.746 49.201c-11.945 17.713-22.038 24.035-23.999 48.469-1.609-3.983-2.466-13.041-2.913-17.553-1.575-15.872 3.148-34.652 12.873-47.411 7.979-10.467 16.401-19.411 21.152-32.106 1.867-4.991 3.111-8.29 3.486-13.677"/><path fill="#e91703" d="M241.438 179.491c1.925.878 4.024 2.684 5.438 4.23 8.118 8.876 13.616 19.791 13.486 32.049-.18 16.857-10.592 30.599-11.272 47.549l-.079 9.605c-2.705-7.962-5.849-17.7-5.691-26.169.486-26.101 12.041-41.232-1.882-67.264"/><path d="M551.43 0h.188c1.704.972 5.782 1.18 7.798 1.058C575.857.073 593.372 6.423 609.217 7c-1.072 1.515-3.129 4.653-4.351 5.81-18.72 33.551-31.637 61.837-38.911 100.187-.832 4.389-3.09 14.445-2.855 18.63l-.276.883c-5.568 1.082-25.454 5.591-29.228 8.601 2.934-.016 12.692.926 14.741.599 15.673 1.2 24.788 2.791 39.698 6.591-2.584 3.695-5.425 10.072-7.248 14.329-10.527 24.588-14.39 51.214-17.341 77.613 35.609-12.126 71.729-.985 94.264 29.073l11.457 5.742c17.654 19.415 23.771 31.135 35.789 54.161-2.405-2.158-5.834-5.061-7.869-7.411l.911 3.106c1.314 2.253 2.296 4.706 3.428 7.07 1.462 1.82 5.286 6.554 6.246 8.386 3.993 7.622 9.145 22.663 10.932 31.135.461 1.718 1.298 4.467 1.626 6.122.931 4.448 3.479 16.528 2.617 20.539.131.123-4.441-9.753-4.756-10.485l-2.96-3.018c4.356 13.166 7.676 22.602 3.613 36.549-1.025 3.52-4.183 7.689-4.46 9.9-.83 4.505-2.085 5.977-5.345 9.295 1.55 4.468 1.546 7.448-.268 11.801.291 5.996-6.616 12.292-7.901 17.551 2.598 4.971 6.012 9.056 9.11 13.713 2.419 4.417 4.237 10.67 6.653 15.668a454 454 0 0 0 9.696 16.523c2.196 3.499 5.971 8.624 7.583 12.124-1.113 8.892-2.96 17.926-4.394 26.815a993 993 0 0 0-8.022 57.037 2262 2262 0 0 0-5.416 58.642c-.235 2.784-.702 16.78-1.185 18.506-1.077-.105-.714.091-1.213-.252-15.159-11.41-22.616-26.913-27.082-45.224-1.429-5.858-2.013-12.86-3.416-18.386-18.648.724-19.517.415-38.028-4.214-3.955 54.634-2.68 106.068 66.053 106.373 13.321-2.836 34.069-7.169 47.431-3.415 1.256.23 3.849.349 5.222.454-15.025 13.019-26.14 25.516-39.567 40.055-25.712 27.841-55.226 52.585-89.133 69.821-14.207 7.221-29.22 13.263-43.296 20.79-25.471 13.341-48.28 30.983-68.492 51.383-5.293 5.344-22.725 24.333-26.47 30.372-5.363-5.854-10.696-13.489-16.073-19.174-17.079-18.058-32.483-33.454-52.902-47.703-19.42-13.876-41.813-23.98-62.954-34.657-51.981-26.252-98.459-62.836-131.027-111.581-1.437-2.151-3.255-3.225-4.368-5.664-3.206-4.951-4.909-15.271-4.929-20.98-.197-56.115 45.612-82.34 89.574-104.33 11.565-5.785 41.778-24.956 50.918-35.152-.902.128-2.112.601-2.828 1.145-12.975 9.857-25.198 17.218-40.273 23.344-20.32 8.259-39.058 8.978-60.418 10.428 22.284-9.303 49.693-36.575 60.309-58.49a98.66 98.66 0 0 0 6.109-68.569c-3.093-11.626-8.513-24.706-12.569-36.322-1.589-2.575-3.034-5.794-4.122-8.588-19.932-51.199-26.893-107.828-20.501-162.377.936-7.993 2.843-16.704 3.235-24.686l.033-.763c9.463 1.426 16.636 2.36 26.182 2.748-4.081-2.985-19.266-12.364-23.679-13.702 3.213-11.682 5.903-23.221 9.647-34.863 3.702-11.51 8.079-22.336 12.167-33.641 15.652 9.081 32.604 19.676 48.039 28.328-7.224-8.267-15.764-16.884-23.185-25.199-4.829-5.409-12.113-13.874-17.225-18.389 3.856-5.358 9.476-16.802 13.785-23.34 17.565-26.646 34.062-45.287 59.462-64.364 4.666 7.844 31.999 60.059 34.628 61.552-.373-5.245-2.928-12.224-4.399-17.663a3515 3515 0 0 0-9.679-35.072c-1.813-6.228-3.956-12.233-5.587-18.502 19.445-11.692 35.542-20.378 57.458-27.188 8.003-2.487 17.068-4.161 24.623-6.708l.668-.228c.729 12.612 4.775 32.05 6.406 45.113 1.032 8.266 3.302 26.185 5.215 33.197.451-2.754.18-5.647.358-8.462 1.513-23.914 1.973-48.172 2.22-72.087.954-.029 7.229-.511 7.899-.742C523.963 1.508 548.24 1.773 551.43 0"/><defs><linearGradient id="a" x1="510.719" x2="366.118" y1="292.185" y2="72.548" gradientUnits="userSpaceOnUse"><stop offset="0" stop-color="#c70a00"/><stop offset="1" stop-color="#f41b04"/></linearGradient></defs><path fill="url(#a)" d="M551.43 0h.188c1.704.972 5.782 1.18 7.798 1.058C575.857.073 593.372 6.423 609.217 7c-1.072 1.515-3.129 4.653-4.351 5.81-18.72 33.551-31.637 61.837-38.911 100.187-.832 4.389-3.09 14.445-2.855 18.63-4.057-2.349-8.797-3.259-13.342-4.218a193 193 0 0 0-26.489-1.902c-.519-4.11-3.187-31.614-3.559-32.536-1.013 3.409-1.326 7.118-1.986 10.702-1.357 7.366-2.868 14.782-3.899 22.194-3.466.35-6.713.659-10.154 1.226-3.675-14.538-5.882-29.934-8.816-44.642-.726 13.758-2.796 33.942-2.668 47.113-58.938 12.933-115.074 55.204-147.4 105.696-29.654 46.32-38.508 96.874-34.641 151.154a258 258 0 0 0 2.7 23.839c.606 3.93 2.597 15.1 2.527 18.586-1.589-2.575-3.034-5.794-4.122-8.588-19.932-51.199-26.893-107.828-20.501-162.377.936-7.993 2.843-16.704 3.235-24.686l.033-.763c9.463 1.426 16.636 2.36 26.182 2.748-4.081-2.985-19.266-12.364-23.679-13.702 3.213-11.682 5.903-23.221 9.647-34.863 3.702-11.51 8.079-22.336 12.167-33.641 15.652 9.081 32.604 19.676 48.039 28.328-7.224-8.267-15.764-16.884-23.185-25.199-4.829-5.409-12.113-13.874-17.225-18.389 3.856-5.358 9.476-16.802 13.785-23.34 17.565-26.646 34.062-45.287 59.462-64.364 4.666 7.844 31.999 60.059 34.628 61.552-.373-5.245-2.928-12.224-4.399-17.663a3515 3515 0 0 0-9.679-35.072c-1.813-6.228-3.956-12.233-5.587-18.502 19.445-11.692 35.542-20.378 57.458-27.188 8.003-2.487 17.068-4.161 24.623-6.708l.668-.228c.729 12.612 4.775 32.05 6.406 45.113 1.032 8.266 3.302 26.185 5.215 33.197.451-2.754.18-5.647.358-8.462 1.513-23.914 1.973-48.172 2.22-72.087.954-.029 7.229-.511 7.899-.742C523.963 1.508 548.24 1.773 551.43 0"/><path fill="#f14534" d="M549.758 127.408c.123-20.975 12.958-59.968 23.349-78.134 4.827-8.438 22.748-33.917 31.759-36.466-18.72 33.552-31.637 61.838-38.911 100.188-.832 4.389-3.09 14.445-2.855 18.63-4.057-2.349-8.797-3.259-13.342-4.218"/><path fill="#cb0f00" d="M487.351 236.948c22.082-4.855 37.339-4.616 58.082 3.946 6.214-1.113 8.32 1.589 18.013-.652 35.609-12.126 71.729-.985 94.264 29.073-3.833.233-7.085.482-10.89.956-5.059.878-10.355 1.565-15.347 2.532-10.345 2.537-19.635 4.881-29.805 8.146-39.658 12.114-76.26 32.663-109.799 56.774a266 266 0 0 0-16.811 13.007c-4.168 3.452-8.485 7.304-12.998 10.288-1.312.868-4.829 1.009-6.479 1.263-7.321 1.127-16.436 5.895-23.118 9.24 13.144-20.4 24.82-33.803 45.377-47.182-42.027-2.012-67.824 7.523-97.732 37.485 4.113-6.843 7.842-14.219 12-20.93a150 150 0 0 1 22.594-27.838c-12.919 7.299-28.469 21.295-37.744 32.669-30.597 37.521-36.12 87.753-26.628 133.904 1.31 6.369 3.071 14.636 3.706 21.021l.053.585c5.965-6.037 11.376-11.471 17.113-17.799 4.433-4.888 9.383-10.697 13.983-15.289a253.1 253.1 0 0 1-45.623 68.493c29.206-20.052 40.78-29.367 64.109-55.958-13.336 37.023-53.846 62.919-88.507 77.63 6.274-6.457 26.61-36.608 28.27-45.058 1.506-7.663-3.714-36.007-5.064-45.14-7.996-54.07 2.197-102.493 32.964-148.022 24.161-35.753 72.532-75.057 116.017-83.144"/><path fill="#f14534" d="M487.351 236.948c22.082-4.855 37.339-4.616 58.082 3.946 6.214-1.113 8.32 1.589 18.013-.652 35.609-12.126 71.729-.985 94.264 29.073-3.833.233-7.085.482-10.89.956-5.059.878-10.355 1.565-15.347 2.532-10.345 2.537-19.635 4.881-29.805 8.146a280 280 0 0 0-4.679-3.816c-24.724-19.714-59.239-27.332-90.593-23.461-72.897 9.001-140.445 66.461-161.136 136.892-.589 2.007-1.378 5.748-2.611 7.298.99-7.278 4.705-18.53 7.145-25.816 13.249-38.75 39.742-75.227 72.312-100.05 13.212-10.07 30.392-18.835 45.237-26.286 6.148-3.086 15.132-3.128 20.008-8.762"/><path fill="#cb0f00" d="M597.293 243.148c18.463-1.013 28.586 10.243 42.29 21.055 1.953 1.541 5.223 5.418 7.237 6.068-5.059.878-10.355 1.565-15.347 2.532-7.432-10.405-16.863-19.103-27.883-25.476-2.153-1.244-4.277-2.726-6.297-4.179"/><defs><linearGradient id="b" x1="602.913" x2="638.818" y1="604.039" y2="417.051" gradientUnits="userSpaceOnUse"><stop offset="0" stop-color="#ce0400"/><stop offset="1" stop-color="#ff412e"/></linearGradient></defs><path fill="url(#b)" d="M668.414 445.982c18.685-2.865 4.111-13.523 8.808-19.674 2.794-1.319 8.289.761 9.326 2.702-.596 1.773-.739 2.299-.757 4.158a70 70 0 0 1-1.138 4.92c2.75 8.74 5.522 14.418 10.353 22.385 1.362 2.245 4.831 7.303 5.764 9.285 2.598 4.971 6.012 9.056 9.11 13.713-1.904 2.103-3.844 3.042-6.407 4.265-14.944-7.013-16.774-5.3-31.513 1.884-4.823.608-9.16 2.992-14.058 2.249-1.44-1.1-1.01-.859-1.729-2.889-.682 1.13-.786 1.316-1.247 2.547-.855 8.767 1.848 10.892 9.888 14.069 4.53.612 8.15 5.406 13.898 6.86.782 2.638 1.359 6.386 4.384 7.125 3.394 3.941 3.307 3.566 8.19 2.428-.151-3.402-.283-5.47.077-8.859 10.017-7.481 12.676-11.163 18.358-22.544 4.042 23.547 1.899 33.775-5.105 56.75-.677 2.22-3.422 11.55-4.218 13.139l-.797.001c-.902 1.824-.836 1.824-1.123 3.884-2.521-.998-3.291-2.095-5.32-3l-.24.468c-3.717 5.983-7.405 9.157-6.663 16.053 1.699 3.193 4.117 8.098 6.711 10.428-.457 11.493 1.628 24.866-10.783 30.633-3.623 1.599-22.567-2.963-27.366-4.386-21.9-6.493-45.199-13.342-64.826-25.267-4.185-2.543-8.675-8.646-11.382-12.604-.579-32.289-.563-64.587.047-96.876-12.24-4.702-28.552-13.157-37.406-22.868-7.322-5.579-11.427-13.32-15.296-21.44 15.503-12.36 35.023-4.738 51.021 2.783 5.474 3.028 14.658 8.105 20.452 9.858 19.746 6.866 23.466 3.366 41.918 2.484.798 2.55-5.076 6.795-7.133 8.738 9.041-4.87 19.002-11.87 27.288-15.95 3.076.793 5.875 1.616 8.914 2.548"/><path fill="#f14534" d="M525.954 435.521c15.503-12.36 35.023-4.738 51.021 2.783 5.474 3.028 14.658 8.105 20.452 9.858-4.959 2.878.026 8.539-13.618 5.994-8.829-1.647-8.65-3.621-15.524-9.44-3.715-2.776-16.326-1.105-20.54 1.273-2.037 4.2-4.382 5.484-6.69 9.159-.264.422.198 1.148.195 1.813-7.322-5.579-11.427-13.32-15.296-21.44"/><path fill="#f13623" d="M668.578 571.858c6.535.598 12.739 1.463 17.677 6.043 1.699 3.193 4.117 8.098 6.711 10.428-.457 11.493 1.628 24.866-10.783 30.633.604-4.148 3.702-6.78 2.952-12.859-1.694-13.725-27.183-20.917-39.11-24.306 9.619-7.386 11.945-6.745 22.553-9.939"/><path d="M649.037 556.179c8.386-.4 18.815-1.188 26.851.708 5.639 1.331 11.326 3.509 17.03 4.961-3.717 5.983-7.405 9.157-6.663 16.053-4.938-4.58-11.142-5.445-17.677-6.043-10.276-2.88-13.742-7.402-19.541-15.679"/><path d="M673.872 522.545c5.73-.345 8.277 1.958 12.829 5.137 3.009-.185 7.804-.857 9.439 2.295 3.871 7.463 1.579 20.756-.064 28.383-2.344-4.912-4.033-9.398-7.952-13.22-6.152-.532-10.72-2.588-16.487-4.738-14.705-.582-25.591 5.185-39.27 3.45 12.126-7.931 27.334-18.006 41.505-21.307"/><path fill="#f14534" d="M669.167 275.057c17.654 19.415 23.771 31.135 35.789 54.161-2.405-2.158-5.834-5.061-7.869-7.411l.911 3.106c1.314 2.253 2.296 4.706 3.428 7.07 1.462 1.82 5.286 6.554 6.246 8.386 3.993 7.622 9.145 22.663 10.932 31.135.461 1.718 1.298 4.467 1.626 6.122.931 4.448 3.479 16.528 2.617 20.539.131.123-4.441-9.753-4.756-10.485l-2.96-3.018c-1.501-1.178-4.428-5.591-6.208-7.357-34.68-34.405-90.646-38.652-135.832-26.49-9.844 2.649-18.618 5.87-28.043 8.896-32.31 14.015-63.4 30.798-89.708 54.592-3.806-5.91-5.809-8.292-11.564-12.498.702-.677 2.612-2.607 3.301-3.049 54.79-60.687 122.372-101.957 202.051-118.499 5.751-1.194 14.687-3.128 20.039-5.2"/><path fill="#cb0f00" d="M553.219 325.943c25.486-13.375 51.644-25.102 79.934-31.096 4.823-1.022 11.568-2.461 16.39-2.692-11.836 4.81-24.007 8.784-35.922 13.556 4.682 9.534 6.84 14.307 9.399 24.865-18.592 1.093-37.643 4.636-55.047 11.484l1.769.915c3.959-1.17 8.777-2.553 12.852-2.821-6.531 4.758-40.269 16.842-41.748 19.901l2.477-.311c.968-.118.608-.084 1.725-.033-32.31 14.015-63.4 30.798-89.708 54.592-3.806-5.91-5.809-8.292-11.564-12.498.702-.677 2.612-2.607 3.301-3.049l.309.244c1.148-.183 19.247-15.707 21.454-17.506 21.787-17.76 45.218-35.025 69.723-48.835 4.554-2.567 9.41-6.028 14.656-6.716"/><path d="M553.219 325.943c25.486-13.375 51.644-25.102 79.934-31.096 4.823-1.022 11.568-2.461 16.39-2.692-11.836 4.81-24.007 8.784-35.922 13.556-36.876 13.911-93.701 41.447-124.576 66.087l-.771-1.173c8.402-6.469 17.845-14.212 26.434-20.211 12.143-8.483 25.875-16.764 38.511-24.471"/><path fill="#500302" d="m488.274 370.625.771 1.173c-3.636 2.889-7.932 6.15-11.806 8.657l-.088-.249c3.508-3.505 7.282-6.458 11.123-9.581"/><path fill="#200000" d="M557.929 345.956c3.518-1.708 6.353-2.717 10.044-3.896l1.769.915c-4.141 1.224-7.586 2.047-11.813 2.981"/><path fill="#e91703" d="M687.806 317.074c.952-.562 1.509-1.196 2.216-.906 3.299 1.349 5.2 6.385 7.976 8.745 1.314 2.253 2.296 4.706 3.428 7.07 1.462 1.82 5.286 6.554 6.246 8.386 3.993 7.622 9.145 22.663 10.932 31.135.461 1.718 1.298 4.467 1.626 6.122l-2.418-1.407c-2.223-5.109-17.349-16.548-22.683-20.244-.633-7.895-5.276-31.251-7.323-38.901"/><path fill="#f14534" d="M701.426 331.983c1.462 1.82 5.286 6.554 6.246 8.386 3.993 7.622 9.145 22.663 10.932 31.135-2.393-1.493-7.534-8.18-8.552-10.617-1.689-4.047-9.552-25.759-8.626-28.904"/><path fill="#cb0f00" d="M653.848 291.877c5.117-3.431 6.862-4.12 12.597-6.312 7.27 21.405 12.572 43.585 18.283 65.455-1.512-.819-8.671-4.214-9.132-4.587-1.22-4.965-15.671-43.16-18.061-44.489-1.594-3.562-2.481-6.332-3.687-10.067"/><path d="M657.535 301.944c2.39 1.329 16.841 39.524 18.061 44.489-26.716-13.358-64.384-12.02-93.002-6.279-4.075.268-8.893 1.651-12.852 2.821l-1.769-.915c17.404-6.848 36.455-10.391 55.047-11.484 17.295.18 27.677 2.207 43.95 7.589-3.286-9.634-6.755-25.859-9.435-36.221"/><path fill="#cb0f00" d="M683.236 302.384c1.799 2.755 4.33 7.137 6.432 9.479 2.814 3.134 4.963 6.942 7.419 9.944l.911 3.106c-2.776-2.36-4.677-7.396-7.976-8.745-.707-.29-1.264.344-2.216.906-2.026-4.711-3.153-9.755-4.57-14.69"/><path fill="#f13623" d="m717.812 376.219 2.418 1.407c.931 4.448 3.479 16.528 2.617 20.539.131.123-4.441-9.753-4.756-10.485 1.826-.049.621 1.084 3.037 2.693l.495-.974c-1.101-5.652-1.11-8.155-3.811-13.18"/><path d="M581.178 372.996c31.862-11.236 78.597-9.479 102.122 17.899 3.525-1.125 5.786-1.831 9.4-2.539 11.134 7.123 14.863 20.83 18.318 33.319-7.838-1.881-12.053-.461-19.71 1.237-1.844 3.381-3.78 6.83-5.517 10.256.018-1.859.161-2.385.757-4.158-1.037-1.941-6.532-4.021-9.326-2.702-4.697 6.151 9.877 16.809-8.808 19.674-3.039-.932-5.838-1.755-8.914-2.548-8.286 4.08-18.247 11.08-27.288 15.95 2.057-1.943 7.931-6.188 7.133-8.738-18.452.882-22.172 4.382-41.918-2.484-5.794-1.753-14.978-6.83-20.452-9.858-15.998-7.521-35.518-15.143-51.021-2.783-2.536-6.148-2.725-10.039-3.557-16.535a99.7 99.7 0 0 1 58.781-45.99"/><path fill="#f14534" d="M581.178 372.996c31.862-11.236 78.597-9.479 102.122 17.899 3.525-1.125 5.786-1.831 9.4-2.539 11.134 7.123 14.863 20.83 18.318 33.319-7.838-1.881-12.053-.461-19.71 1.237-1.844 3.381-3.78 6.83-5.517 10.256.018-1.859.161-2.385.757-4.158-1.037-1.941-6.532-4.021-9.326-2.702-4.697 6.151 9.877 16.809-8.808 19.674-1.444-7.361-6.371-19.957-5.721-26.124.724-.516 2.353-1.969 3.102-2.602-.106-2.917.293-8.343-.015-10.465l-.349.195c-.222 1.255-.257 1.508-.702 2.691-1.49-.169-8.173-4.658-10.17-5.847-36.574-21.782-59.227-25.536-95.869-1.006-.907-2.377 1.138-4.97 2.48-6.865 1.051-1.972 3.736-5.406 5.153-7.32 4.127-4.99 11.026-10.003 14.855-15.643"/><path fill="#cb0f00" d="M522.397 418.986a99.7 99.7 0 0 1 58.781-45.99c-3.829 5.64-10.728 10.653-14.855 15.643-1.417 1.914-4.102 5.348-5.153 7.32-1.342 1.895-3.387 4.488-2.48 6.865a89 89 0 0 1-3.691 3.184c8.559-2.993 16.805-5.62 25.651-7.676 18.97-4.407 28.809-.597 44.343 10.466-12.117-.947-23.748 1.286-35.036 5.612-15.329 5.873-18.073 11.573-34.866 7.311 9.121 6.407 15.776 9.777 26.059 13.495-1.277.916-3.02 2.083-4.175 3.088-15.998-7.521-35.518-15.143-51.021-2.783-2.536-6.148-2.725-10.039-3.557-16.535"/><path fill="#cb0f00" d="m657.659 422.153 5.034-2.295c-.65 6.167 4.277 18.763 5.721 26.124-3.039-.932-5.838-1.755-8.914-2.548-8.286 4.08-18.247 11.08-27.288 15.95 2.057-1.943 7.931-6.188 7.133-8.738-18.452.882-22.172 4.382-41.918-2.484-5.794-1.753-14.978-6.83-20.452-9.858 1.155-1.005 2.898-2.172 4.175-3.088 11.774 8.328 22.023 9.707 35.868 11.668-9.754-3.933-16.24-6.399-24.68-13.056 10.055-1.479 39.152-7.081 33.514 12.395 4.034 1.311 10.084 2.647 13.465 4.022a206 206 0 0 1-3.91-13.83c5.209 3.127 6.898 3.744 10.606 8.623 4.247-7.578 8.426-14.795 11.646-22.885"/><path fill="#cb0f00" d="M606.552 415.141c9.496-.984 16.045.885 23.39 7.084-8.897-3.139-12.753-2.844-22.145-2.727-8.546-.111-14.189 1.134-22.288 3.117 6.012-3.799 14.146-5.666 21.043-7.474"/><path fill="#cb0f00" d="M415.594 513.904c-8.295 37.585-23.517 61.788-56.216 83.117-36.722 23.954-82.905 30.413-112.146 65.187-15.77 18.754-18.149 32.195-17.752 55.556-3.206-4.951-4.909-15.271-4.929-20.98-.197-56.115 45.612-82.34 89.574-104.33 11.565-5.785 41.778-24.956 50.918-35.152 2.556-2.389 4.36-3.805 7.162-5.926-8.061 13.291-13.141 20.623-24.391 31.708 30.803-18.668 49.896-37.972 67.78-69.18"/><path fill="#f13623" d="M548.337 141.709c15.673 1.2 24.788 2.791 39.698 6.591-2.584 3.695-5.425 10.072-7.248 14.329-10.527 24.588-14.39 51.214-17.341 77.613-9.693 2.241-11.799-.461-18.013.652-2.89-26.478-1.512-63.74 1.741-90.108.306-.926 1.001-7.669 1.163-9.077"/><path fill="#cb0f00" d="M711.109 727.083c13.321-2.836 34.069-7.169 47.431-3.415-13.34 4.224-24.527 9.529-36.169 17.329-26.959 18.061-52.942 40.385-75.526 63.644a512 512 0 0 0-14.987 16.096c-2.894 3.273-7.229 8.583-10.176 11.314 3.705-7.548 7.802-16.617 11.825-23.894 14.961-27.067 34.954-54.009 60.759-71.583 4.888-3.329 11.567-6.76 16.843-9.491"/><path fill="#cb0f00" d="M533.596 141.11c2.934-.016 12.692.926 14.741.599-.162 1.408-.857 8.151-1.163 9.077-.293-.435-.513-.474-1.012-.794-3.87-.212-7.262.151-11.107.618-74.05 8.982-140.328 56.263-177.199 120.502-1.686 2.937-3.726 9.379-6.509 11.022l-.602-.401c-.368-3.043 3.16-9.319 4.611-12.106 35.259-67.725 102.519-117.581 178.24-128.517"/><path fill="#e91703" d="M726.774 527.504c-3.077-6.404-9.728-21.627-10.241-28.365a454 454 0 0 0 9.696 16.523c2.196 3.499 5.971 8.624 7.583 12.124-1.113 8.892-2.96 17.926-4.394 26.815a993 993 0 0 0-8.022 57.037 2262 2262 0 0 0-5.416 58.642c-.235 2.784-.702 16.78-1.185 18.506-1.077-.105-.714.091-1.213-.252-4.735-54.643 4.072-107.277 13.192-161.03"/><path fill="#e91703" d="m692.918 561.848.24-.468c2.029.905 2.799 2.002 5.32 3 .287-2.06.221-2.06 1.123-3.884l.797-.001c-2.215 9.099-6.219 18.828-7.432 27.834-2.594-2.33-5.012-7.235-6.711-10.428-.742-6.896 2.946-10.07 6.663-16.053"/><path fill="#cb0f00" d="M698.901 437.807a877 877 0 0 1 15.383-6.696c-.83 4.505-2.085 5.977-5.345 9.295 1.55 4.468 1.546 7.448-.268 11.801l-1.209-.087.044-.259c.488-1.264-.199-3.646-.68-4.922-1.938-5.143-3.422-6.763-7.925-9.132"/><path fill="#e91703" d="M707.462 452.12c-2.056.596-5.321-2.235-7.94-2.921-2.767-.723-5.59-.53-7.877-1.676l.059-.705c6.688-4.694 12.299-1.349 15.802 5.043z"/><path fill="#cb0f00" d="M654.926 491.527c.461-1.231.565-1.417 1.247-2.547.719 2.03.289 1.789 1.729 2.889 4.898.743 9.235-1.641 14.058-2.249-6.469 5.031-11.404 11.562-17.034 1.907"/><path fill="#e91703" d="M664.814 505.596c16.727-.713 11.031 2.954 18.282 13.985-3.025-.739-3.602-4.487-4.384-7.125-5.748-1.454-9.368-6.248-13.898-6.86"/><path fill="#cb0f00" d="m489.843 413.848 8.457-6.799c.655 7.737 3.449 16.174 5.817 23.588 4.457 10.006 9.7 18.943 16.906 27.202 2.962 3.166 5.379 5.659 8.557 8.592 3.468 3.093 6.087 5.128 9.837 7.893 4.624 3.006 8.769 5.398 13.557 8.113 3.804 1.963 6.432 3.311 10.401 4.827a1983 1983 0 0 0-1.338 134.027c.403 15.538.802 32.634 1.935 48.11-20.572-22.321-39.236-46.233-61.886-66.725-3.5-3.167-7.753-7.106-10.959-10.505-.329-2.635-6.373-6.622-8.895-9.453.148-1.903 3.308-6.13 4.745-7.299 2.611.599 2.691 3.815 6.637 4.461 1.085.75 3.375 2.581 4.014 3.666 2.84 2.012 8.624 7.492 11.312 9.995a368 368 0 0 1 29.604 30.502c-1.928-3.924-8.992-14.689-11.832-18.815-13.389-19.447-27.47-40.243-42.36-58.443q-.257-32.654.013-65.307c5.563 5.54 9.983 9.893 16.285 14.708-5.389-8.938-11.001-21.32-14.121-31.289-2.442-7.804-4.08-15.458-6.853-23.352 11.545 17.205 23.51 28.485 40.924 39.536 7.747 4.917 14.52 11.179 21.424 17.22.007 19.912 2.133 42.592 3.843 62.52.667 7.777 1.2 15.705 2.071 23.438 2.565-3.463-.276-21.453 1.318-28.868l1.282-59.743c-11.438-4.526-23.182-11.176-31.431-20.424-15.374-17.233-25.672-38.518-29.264-61.376"/><defs><linearGradient id="c" x1="481.799" x2="564.184" y1="577.095" y2="575.044" gradientUnits="userSpaceOnUse"><stop offset="0" stop-color="#be0800"/><stop offset="1" stop-color="#f83e2c"/></linearGradient></defs><path fill="url(#c)" d="M552.974 482.437c3.804 1.963 6.432 3.311 10.401 4.827a1983 1983 0 0 0-1.338 134.027c.403 15.538.802 32.634 1.935 48.11-20.572-22.321-39.236-46.233-61.886-66.725-3.5-3.167-7.753-7.106-10.959-10.505-.329-2.635-6.373-6.622-8.895-9.453.148-1.903 3.308-6.13 4.745-7.299 2.611.599 2.691 3.815 6.637 4.461 1.085.75 3.375 2.581 4.014 3.666.326.686 1.469 2.085 1.579 2.725.6 3.501-2.599 5.209-2.535 8.307 1.293 2.781 4.239 1.491 6.574.53 1.231-1.429.815-1.545.973-3.938 1.914.915 6.69 5.589 8.546 7.285-2.652 4.435-2.708 4.629-2.174 9.605 8.472 6.55 14.317 13.297 21.71 20.92 7.983 8.232 16.43 16.414 23.497 25.462-2.066-23.024-2.051-45.112-2.198-68.178-.244-31.719.364-63.439 1.823-95.126l-5.023-2.45 1.165-.536c1.333-2.015 1.415-3.366 1.409-5.715"/><path fill="#f13623" d="M504.117 430.637c4.457 10.006 9.7 18.943 16.906 27.202-2.257 2.427-2.415 2.536-3.067 5.821-4.376-5.005-17.993-26.877-13.839-33.023"/><path fill="#f14534" d="M539.417 474.324c4.624 3.006 8.769 5.398 13.557 8.113.006 2.349-.076 3.7-1.409 5.715l-1.165.536a84.4 84.4 0 0 1-16.809-10.421c1.273-1.238 4.009-2.426 5.826-3.943"/><path fill="#f14534" d="M521.023 457.839c2.962 3.166 5.379 5.659 8.557 8.592-.958 1.422-2.655 4.229-3.847 5.265-3.278-2.745-5.054-4.779-7.777-8.036.652-3.285.81-3.394 3.067-5.821"/><path fill="#f13623" d="M529.58 466.431c3.468 3.093 6.087 5.128 9.837 7.893-1.817 1.517-4.553 2.705-5.826 3.943-2.657-2.143-5.358-4.249-7.858-6.571 1.192-1.036 2.889-3.843 3.847-5.265"/><path fill="#200000" d="M547.938 584.259c2.565-3.463-.276-21.453 1.318-28.868.075 13.606.457 28.037.131 41.555-.898-3.877-1.601-8.717-1.449-12.687"/><path fill="#cb0f00" d="M623.398 661.505c.87.923.518 11.24.565 13.304.722 31.518 10.486 46.892 40.909 56.913-33.943 35.275-74.073 54.228-117.816 74.045-8.802 3.818-21.09 9.333-29.219 14.292 2.815-3.435 5.475-7.445 8.083-11.06 34.511-47.822 69.136-95.617 97.478-147.494"/><path fill="#cb0f00" d="m411.556 744.596.136.15c.216.901-1.941 3.237-2.57 4.186-29.615 44.688 18.661 70.196 45.964 97.013 11.396 11.193 20.831 25.292 29.452 38.785 26.327-24.658 51.981-35.51 86.141-46.467 3.218-1.032 17.216-5.849 19.411-6.003-1.352 1.422-19.27 11.145-22.968 13.501-32.595 20.524-55.893 35.58-80.694 65.02-13.365-22.145-29.195-43.88-49.502-60.086-36.848-29.407-80.283-66.366-25.37-106.099"/><path fill="#cb0f00" d="M463.971 609.304c1.723 1.208 6.419 10.143 7.719 12.518 13.251 24.219 24.782 47.866 32.828 74.369 11.632 38.317 8.311 72.109-10.472 107.24-2.942 5.893-6.925 11.912-10.501 17.459 6.052-53.532-2.478-104.522-10.803-157.296-2.723-17.261-5.357-37.463-8.771-54.29"/><path fill="#cb0f00" d="m371.622 612.349.324.59c-5.58 5.962-11.407 11.903-17.082 17.794-35.979 37.35-67.442 85.223-54.021 139.788-2.227-3.194-4.083-6.209-6.12-9.533-2.747-4.962-5.196-9.653-7.201-14.915-17.896-46.965 12.985-91.586 52.595-114.99 10.368-6.126 21.475-12.215 31.505-18.734"/><path fill="#cb0f00" d="M407.028 655.648c.257 2.065-2.807 10.188-3.489 12.461-4.295 14.322-11.574 26.196-21.05 37.693-14.598 17.709-32.084 31.191-38.319 54.521-4.886 18.286-1.791 36.267 7.532 52.601a180 180 0 0 1-8.836-9.079c-9.123-10.99-15.865-21.476-17.831-35.952-3.282-24.161 9.732-43.961 27.458-58.993 10.652-9.033 22.782-16.876 33.039-26.496 5.929-5.56 11.615-12.163 16.362-18.793 1.91-2.668 3.113-5.295 5.134-7.963"/><path fill="#cb0f00" d="M444.52 476.226c2.139-2.458 4.201-5.083 6.247-7.627 2.035 11.659 5.433 22.506 7.133 35.025 2.314 17.048 1.935 31.008 1.591 48.076 7.043 4.659 28.405 22.18 34.123 28.18-3.946-.646-4.026-3.862-6.637-4.461-1.437 1.169-4.597 5.396-4.745 7.299 2.522 2.831 8.566 6.818 8.895 9.453-3.339-2.574-9.333-8.402-12.842-11.494a604 604 0 0 0-29.253-24.552c.236-7.929 1.037-15.8 1.176-23.917.336-19.517-1.73-36.967-5.688-55.982"/><path fill="#cb0f00" d="M403.916 414.329c1.989-.078 4.115-1.871 6.186-2.563 8.957-2.993 13.136-2.228 13.325 7.919-21.11-5.361-24.364 14.089-20.709 29.834 1.052-8.077 2.414-10.861 8.076-16.485-.594 8.188.245 16.973 7.884 21.989 1.459 1.143 3.997 1.25 5.016 2.87 2.709 4.309 10.645 1.097 14.114-.694-21.32 26.669-46.757 4.136-43.513-22.859.883-7.348 3.508-15.185 9.621-20.011"/><path fill="#cb0f00" d="M515.012 201.401c3.881-.147 6.652-.402 10.435.537-12.32 2.036-19.017 4.247-30.6 7.661-28.901 8.518-55.826 20.796-79.148 40.237-2.859 2.37-4.225 3.145-7.463 5.019 4.474-6.18 11.069-12.195 17.161-16.761 27.361-20.508 54.508-36.005 89.615-36.693"/><path fill="#cb0f00" d="M405.042 601.476c3.038-5.015 7.564-13.517 11.56-17.313-1.628 5.092-3.494 11.252-5.837 15.968-9.808 27.358-36.602 47.833-61.513 61.089 14.282-13.923 28.393-28.944 42.238-43.359 4.724-4.918 9.08-11.501 13.552-16.385"/><path fill="#cb0f00" d="M405.042 601.476c3.038-5.015 7.564-13.517 11.56-17.313-1.628 5.092-3.494 11.252-5.837 15.968l-.742-.245.472-1.733-.313-.057c-3.4 3.037-.893-1.316-4.3 3.592z"/><path fill="#f14534" d="M403.916 414.329c17.813-17.271 39.576-3.268 41 19.259-.252 6.397-.221 8.237-2.445 14.214-4.719-.439-5.958-.699-10.069-2.651.641-4.92.428-7.329.189-12.322-1.084-4.98-3.03-7.584-6.194-11.294l-2.97-1.85c-.189-10.147-4.368-10.912-13.325-7.919-2.071.692-4.197 2.485-6.186 2.563"/><path fill="#cb0f00" d="M432.591 432.829c1.087.048 2.02-.011 3.029.31 3.132.435 6.138.403 9.296.449-.252 6.397-.221 8.237-2.445 14.214-4.719-.439-5.958-.699-10.069-2.651.641-4.92.428-7.329.189-12.322"/><path fill="#e91703" d="M426.397 421.535c8.378.909 9.237 3.55 9.223 11.604-1.009-.321-1.942-.262-3.029-.31-1.084-4.98-3.03-7.584-6.194-11.294"/><path fill="#e91703" d="M685.467 253.789c160.277 60.257 220.135 266.048 163.293 417.838a359.2 359.2 0 0 1-191.601 202.844c-14.051 6.349-31.404 12.108-44.354 19.186-36.049 19.702-67.416 50.052-93.471 81.482-4.517 5.449-15.42 18.93-18.553 24.861h-.599c-24.873-39.91-72.322-86.674-114.111-108.55-13.173-6.467-27.214-11.373-40.511-17.541-119.359-55.369-211.382-176.267-213.674-310.303.81 2.354 1.289 5.032 1.927 7.478 5.586 21.47 14.355 42.151 28.897 59.141 3.364 3.931 7.058 7.571 10.309 11.446 1.295 12.759 11.147 37.805 16.735 49.269a313 313 0 0 0 21.877 38.643c30.676 45.439 78.687 86.363 126.539 112.427 18.053 9.832 34.627 15.773 52.703 24.169a229.4 229.4 0 0 1 33.856 19.613c20.936 14.823 40.188 34.246 56.93 53.673 6.695 7.769 12.684 16.395 19.399 24.121 24.443-37.19 67.248-76.14 107.658-95.741 14.823-7.19 30.97-12.404 45.976-20.086 59.329-30.37 110.194-75.887 143.746-133.754 76.309-129.135 56.311-305.58-52.329-410.465-19.768-19.086-37.147-33.765-61.237-47.802z"/><path fill="#e91703" fill-opacity=".929" d="M676.484 251.034c2.947.808 6.047 1.836 8.983 2.755l-.595 1.949c-1.879-1.258-5.835-3.105-8.388-4.704"/></svg>