<svg xmlns="http://www.w3.org/2000/svg" width="600" height="600" viewBox="0 0 600 600"><path fill="#1c1b1b" d="M273.022 0h54.144c.793.532.957.723 1.851 1.053 2.883.251 9.417 1.081 11.875 1.073 8.083-.309 19.778 3.506 27.599 4.782 5.31 2.323 13.466 2.932 19.021 4.95 9.833 3.572 20.564 6.872 30.146 11.01A302.3 302.3 0 0 1 570.417 168.14c2.074 4.266 4.933 9.339 6.622 13.655 5.424 13.862 10.536 27.46 14.021 41.95 2.681 11.146 5.878 21.974 7.019 33.485.444 3.494.874 10.983 1.921 14.123v57.192c-.866 2.511-1.103 7.519-1.419 10.398a168 168 0 0 1-1.42 9.91c-10.716 64.086-42.206 123.844-89.257 168.621-2.48 2.36-13.704 12.756-15.973 13.738-1.62 2.109-8.655 6.948-11.278 8.908a311.2 311.2 0 0 1-65.228 37.722c-2.852 1.203-6.299 2.133-9.337 3.345-1.326.522-6.532 2.629-7.652 2.791-14.659 6.081-36.205 10.966-51.93 13.628a87 87 0 0 1-10.958 1.227c-2.871.147-6.436-.255-8.936 1.167h-53.54c-1.348-1.117-14.464-2.234-17.161-2.592-12.93-1.717-24.68-4.723-37.227-8.091-3.815-1.024-12.735-3.14-15.977-4.986-5.962-1.396-17.943-6.111-23.42-9.016-3.295-1.017-30.056-14.426-32.248-16.733-3.917-1.462-18.2-10.332-20.984-13.369-1.482-1.441-4.41-3.343-6.105-4.699-5.382-4.309-14.476-10.41-18.953-15.302-8.6-6.903-14.992-12.995-21.81-21.582-7.909-8.638-15.129-16.798-21.796-26.476-2.235-3.245-4.881-6.325-7.073-9.618-2.815-3.537-6.584-9.94-8.965-13.855a304.6 304.6 0 0 1-36.368-93.159c-1.824-8.442-3.027-16.998-3.971-25.572-.225-2.041-.467-4.063-1.014-6.047v-56.895c.936-2.669 1.538-11.463 1.898-14.641 1.176-10.386 3.685-19.758 6.07-29.855 3.566-15.092 8.492-29.212 14.204-43.625 2.008-5.065 4.895-10.481 7.29-15.409a297.4 297.4 0 0 1 88.261-107.826c6.194-4.656 14.376-11.38 21.176-14.289.811-.653 5.321-3.164 6.532-3.931 8.441-5.347 17.12-9.75 26.19-13.926 2.988-1.375 6.979-3.503 9.98-4.658 2.877-2.024 15.735-7.071 19.167-7.296 14.803-5.888 35.451-10.134 51.189-13.221 4.344-.852 18.627-1.859 21.065-3.331M0 328.903c.547 1.984.79 4.006 1.014 6.047.944 8.574 2.147 17.13 3.971 25.572a304.6 304.6 0 0 0 36.368 93.159c2.38 3.915 6.15 10.318 8.965 13.855-.152-1.473-1.998-4.031-2.878-5.42 38.092-46.151 109.538-42.948 148.193-99.022a118.7 118.7 0 0 0 17.95-39.81c.447-1.768 1.605-5.844 1.303-7.484-.57.103-.812.385-1.111.937-14.447 26.741-34.764 45.522-59.674 62.281-.906-.116-.605-.083-1.467-.598 6.602-7.093 15.185-18.409 19.595-27.117-1.526 1.132-3.434 2.716-5.013 3.678-5.94 3.62-11.26 8.138-17.028 11.955A144.3 144.3 0 0 1 97.1 388.913c-4.753.893-9.858 1.329-14.698 1.91-2.783-.109-5.163.099-8.165-.085.928-2.249 1.706-2.995 2.992-4.96.521-.797.143-1.351-.133-2.145 9.131-5.169 23.905-20.4 30.642-28.233 16.49-19.175 24.256-41.737 23.43-66.906-.689-20.975-7.564-37.223-14.516-56.731-1.176-3.299-2.009-10.625-2.585-14.259a391 391 0 0 1-3.402-25.155c-4.332-45.272 1.016-92.107 21.071-133.3 2.11-4.336 4.076-8.955 7.163-12.686-6.8 2.91-14.982 9.633-21.176 14.289a297.4 297.4 0 0 0-88.26 107.826c-2.396 4.928-5.283 10.344-7.29 15.409-5.713 14.413-10.64 28.533-14.205 43.625-2.385 10.097-4.894 19.469-6.07 29.855-.36 3.178-.962 11.972-1.898 14.641zm500.315-60.247c1.168 2.305 1.513 3.245 2.986 5.421 2.222 3.281 4.906 5.979 6.344 9.675 2.731 3.333 6.923 18.119 8.442 22.473 2.499 7.166 5.057 14.282 8.539 21.098-1.606 10.805-3.683 21.52-5.358 32.297a816 816 0 0 0-6.677 52.557c-1.773 17.746-2.977 35.53-2.759 53.375.093 7.63.891 15.426 1.576 23.037-2.093-1.834-5.934-4.996-7.65-6.846-8.315-8.966-15.017-22.247-18.227-34.106-1.854-6.851-3.194-15.756-4.335-22.845-3.842.114-7.508.538-11.309.72-9.22.442-18.3-3.57-26.934-4.808-2.143 27.206-4.381 64.406 13.976 86.684 9.228 11.2 23.939 18.629 38.53 18.65-1.106.924-5.264 4.197-5.528 5.174 2.269-.982 13.493-11.378 15.973-13.738 47.051-44.777 78.541-104.535 89.257-168.621a168 168 0 0 0 1.42-9.91c.316-2.879.553-7.887 1.419-10.398v-57.192c-1.047-3.14-1.477-10.629-1.921-14.123-1.141-11.511-4.338-22.339-7.019-33.485-3.485-14.49-8.597-28.088-14.021-41.95-1.689-4.316-4.548-9.389-6.622-13.655A302.3 302.3 0 0 0 417.658 22.868c-9.582-4.138-20.313-7.438-30.146-11.01-5.555-2.018-13.711-2.627-19.021-4.95-1.869 3.893-5.56 29.124-5.097 33.311 29.623-8.045 53.629-6.315 78.259 12.937 6.231 4.87 11.244 8.86 15.357 15.906-.88.05-3.368.082-4.003.564.766-.02 4.251-.241 4.592-.106 1.936.77 10.347 4.805 11.244 6.073 3.654.796 20.989 25.782 23.983 31.026 2.976 5.213 8.07 14.989 10.809 20.764-1.537-1.135-5.425-5.218-6.022-5.461l-.602.25c-2.187-2.857-4.281-5.652-6.512-8.487-.902-2.109-5.817-9.28-7.297-11.443 1.539 6.154 3.591 11.738 5.491 17.714 1.42 4.47 1.703 10.331 2.909 14.913 1.64 7.536 2.93 13.5 3.645 21.184 7.362 4.784 12.979 9.284 18.928 15.786 3.643 3.982 5.494 4.66 6.658 10.335 1.035 5.049 1.273 10.341 2.234 15.299l-.641.504c-1.232-5.88-3.026-9.999-8.081-13.326 5.084 9.54 7.873 23.852 4.952 34.538-1.144 4.186-3.806 8.556-5.946 12.313-4.993 1.724-9.963 4.373-14.898 6.309 2.567 1.17 4.283 2.042 5.994 4.5 1.412 2.029 3.612 7.28 3.217 9.641l-.704.8 1.133.227c1.307 2.725-5.816 13.536-7.778 15.677"/><path fill="#ea1202" d="M0 272.008c.936-2.669 1.538-11.463 1.898-14.641 1.176-10.386 3.685-19.758 6.07-29.855 3.566-15.092 8.492-29.212 14.204-43.625 2.008-5.065 4.895-10.481 7.29-15.409a297.4 297.4 0 0 1 88.261-107.826c6.194-4.656 14.376-11.38 21.176-14.289-3.087 3.73-5.053 8.35-7.163 12.686-20.055 41.193-25.403 88.028-21.071 133.3a391 391 0 0 0 3.402 25.155c.576 3.634 1.409 10.96 2.585 14.259 6.952 19.508 13.827 35.756 14.516 56.731.826 25.169-6.94 47.731-23.43 66.906-6.737 7.833-21.511 23.064-30.642 28.233.276.794.654 1.348.133 2.145-1.286 1.965-2.064 2.711-2.992 4.96 3.002.184 5.382-.024 8.165.085 4.84-.581 9.945-1.017 14.698-1.91a144.3 144.3 0 0 0 53.088-21.977c5.768-3.817 11.088-8.335 17.028-11.955 1.579-.962 3.487-2.546 5.013-3.678-4.41 8.708-12.993 20.024-19.595 27.117.862.515.561.482 1.467.598 24.91-16.759 45.227-35.54 59.674-62.281.299-.552.541-.834 1.111-.937.302 1.64-.856 5.716-1.303 7.484a118.7 118.7 0 0 1-17.95 39.81c-38.655 56.074-110.1 52.871-148.193 99.022.88 1.389 2.726 3.947 2.878 5.42-2.815-3.537-6.584-9.94-8.965-13.855a304.6 304.6 0 0 1-36.368-93.159c-1.824-8.442-3.027-16.998-3.971-25.572-.225-2.041-.467-4.063-1.014-6.047zm1.753 11.906c.093-1.861-.128-3.834-.275-5.705-.3 2.196-.417 3.732-.29 5.93-.065 2.241-.311 6.701.147 8.675l.3-.06c.589-1.552.078-6.635.118-8.84m-.143 34.244c.085-1.744.645-8.745-.048-9.872l-.384-.276c-.268 2.563-.03 7.569.432 10.148M70.353 108.76c1.2-.99 3.758-3.01 4.409-4.331l-.334-.518c-.706.766-4.048 4.187-4.167 4.818zM35.662 438.678c-.313-1.319-1.352-3.29-2.133-4.403l-.436.039c.384 1.082 1.438 3.711 2.23 4.491zM3.202 334.992c-.001.878-.15 2.515.459 3.126.183-1.088.456-1.825-.004-2.792zm.175-73.12c-.132.994-.409 1.955-.003 2.811l.505.365c-.008-.893.127-2.564-.502-3.176M81.12 96.483c-.836.77-2.005 1.647-2.362 2.666 1.145-.272 2.153-1.555 3.017-2.458 1.144-1.339 1.897-1.857 2.885-3.373-1.572.859-2.326 1.853-3.54 3.165M2.119 269.753c-.089 1.33-.285 2.524.07 3.787l.659.404c-.06-1.117.018-3.505-.73-4.191M35.57 160.43a127 127 0 0 0-2.365 5.023l.288.278c.783-1.056 1.897-3.328 2.277-4.592z"/><path fill="#8f0f0b" d="M64.493 391.149c3.422-1.364 9.05-5.36 12.603-7.516.276.794.654 1.348.133 2.145-1.286 1.965-2.064 2.711-2.992 4.96 3.002.184 5.382-.024 8.165.085-3.239.711-14.456.738-17.909.326"/><path fill="#361310" d="M147.084 383.601c1.463-1.435 4.014-4.007 5.55-5.181.862.515.561.482 1.467.598-1.312 1.11-5.506 3.83-7.017 4.583"/><path fill="#ea1202" fill-opacity=".49" d="m1.188 284.139.565-.225c-.04 2.205.47 7.288-.118 8.84l-.3.06c-.458-1.974-.212-6.434-.147-8.675"/><path fill="#ea1202" fill-opacity=".42" d="m1.178 308.01.384.276c.693 1.127.133 8.128.048 9.872-.462-2.579-.7-7.585-.432-10.148"/><path fill="#ea1202" fill-opacity=".439" d="m74.428 103.911.334.518c-.651 1.321-3.208 3.341-4.41 4.331l-.091-.031c.119-.631 3.46-4.052 4.167-4.818"/><path fill="#ea1202" fill-opacity=".882" d="m33.093 434.314.435-.039c.782 1.113 1.821 3.084 2.134 4.403l-.339.127c-.792-.78-1.846-3.409-2.23-4.491"/><path fill="#ea1202" fill-opacity=".396" d="m35.57 160.43.2.709c-.38 1.264-1.494 3.536-2.277 4.592l-.288-.278a127 127 0 0 1 2.365-5.023"/><path fill="#ea1202" fill-opacity=".361" d="M81.12 96.483c1.215-1.312 1.97-2.306 3.54-3.165-.987 1.516-1.74 2.034-2.884 3.373z"/><path fill="#ea1202" fill-opacity=".831" d="M81.776 96.691c-.864.903-1.872 2.186-3.017 2.458.357-1.02 1.526-1.896 2.362-2.666z"/><path fill="#ea1202" fill-opacity=".808" d="M1.188 284.139c-.127-2.198-.01-3.734.29-5.93.147 1.871.368 3.844.275 5.705z"/><path fill="#ea1202" fill-opacity=".737" d="M2.119 269.753c.747.686.668 3.074.729 4.191l-.66-.404c-.354-1.263-.158-2.457-.07-3.787"/><path fill="#ea1202" fill-opacity=".737" d="M3.377 261.872c.629.612.494 2.283.502 3.176l-.505-.365c-.406-.856-.129-1.817.003-2.811"/><path fill="#ea1202" fill-opacity=".827" d="m3.203 334.992.454.334c.46.967.187 1.704.004 2.792-.61-.611-.46-2.248-.458-3.126"/><path fill="#ea1202" d="M368.491 6.908c5.31 2.323 13.466 2.932 19.021 4.95 9.833 3.572 20.564 6.872 30.146 11.01A302.3 302.3 0 0 1 570.417 168.14c2.074 4.266 4.933 9.339 6.622 13.655 5.424 13.862 10.536 27.46 14.021 41.95 2.681 11.146 5.878 21.974 7.019 33.485.444 3.494.874 10.983 1.921 14.123v57.192c-.866 2.511-1.103 7.519-1.419 10.398a168 168 0 0 1-1.42 9.91c-10.716 64.086-42.206 123.844-89.257 168.621-2.48 2.36-13.704 12.756-15.973 13.738.264-.977 4.422-4.25 5.528-5.174-14.591-.021-29.302-7.45-38.53-18.65-18.357-22.278-16.119-59.478-13.976-86.684 8.634 1.238 17.714 5.25 26.934 4.808 3.801-.182 7.467-.606 11.309-.72 1.141 7.089 2.481 15.994 4.335 22.845 3.21 11.859 9.912 25.14 18.227 34.106 1.716 1.85 5.557 5.012 7.65 6.846-.685-7.611-1.483-15.407-1.576-23.037-.218-17.845.986-35.629 2.759-53.375a816 816 0 0 1 6.677-52.557c1.675-10.777 3.752-21.492 5.358-32.297-3.482-6.816-6.04-13.932-8.539-21.098-1.519-4.354-5.711-19.14-8.442-22.473-1.438-3.696-4.122-6.394-6.344-9.675-1.473-2.176-1.818-3.116-2.986-5.421 1.962-2.141 9.085-12.952 7.778-15.677l-1.133-.227.704-.8c.395-2.361-1.805-7.612-3.217-9.641-1.711-2.458-3.427-3.33-5.994-4.5 4.935-1.936 9.905-4.585 14.898-6.309 2.14-3.757 4.802-8.127 5.946-12.313 2.921-10.686.132-24.998-4.952-34.538 5.055 3.327 6.849 7.446 8.081 13.326l.641-.504c-.961-4.958-1.199-10.25-2.234-15.299-1.164-5.675-3.015-6.353-6.658-10.335-5.949-6.502-11.566-11.002-18.928-15.786-.715-7.684-2.005-13.648-3.645-21.184-1.206-4.582-1.489-10.443-2.909-14.913-1.9-5.976-3.952-11.56-5.491-17.714 1.48 2.163 6.395 9.334 7.297 11.443 2.231 2.835 4.325 5.63 6.512 8.487l.602-.25c.597.243 4.485 4.326 6.022 5.461-2.739-5.775-7.833-15.551-10.809-20.764-2.994-5.244-20.329-30.23-23.983-31.026-.897-1.268-9.308-5.303-11.244-6.073-.341-.135-3.826.085-4.592.106.635-.482 3.123-.514 4.003-.564-4.113-7.046-9.126-11.036-15.357-15.906-24.63-19.251-48.636-20.982-78.259-12.937-.463-4.187 3.228-29.418 5.097-33.31M599.099 309.36c-.04-.89.015-1.305-.398-2.102-.667 1.197-.488 2.991-.424 4.365-.239 2.354-.057 5.629.14 7.981l.311.294-.291-.429.331.188c.317-2.929.518-7.361.331-10.297M431.93 31.774c-1.004-.515-2.214-1.279-3.295-1.334.544.911 2.477 1.706 3.489 2.159 2.417 1.242 4.241 2.072 6.756 3.108-.392-.906-5.761-3.371-6.95-3.934m166.586 246.668a54 54 0 0 0-.242 8.236c-.011 1.178-.239 5.288.403 6.064.471-.775.336-.447.416-1.4.361-3.57-.179-9.334-.577-12.9m-1.002-9.818c-.255 1.692-.584 3.146-.394 4.839.289.38.335.496.694.804.212-1.625.333-3.815-.086-5.412zm-71.848 227.5c.855-.946 2.809-2.957 3.276-3.97l-.162-.25c-1.119.999-2.625 2.217-3.477 3.399l-.002.509zM496.331 74.818c-.939-1.226-2.644-3.028-4.061-3.71.842 1.578 2.149 3.523 4.061 3.71m99.943 261.103c-.076 1.104-.266 2.186.13 3.196l.218.201c.134-1.063.395-2.134.015-3.101zm-.494-78.669c.183-1.149.427-2.313-.353-3.288-.243 1.473-.581 2.06.353 3.288M518.442 95.933c-.807-.856-1.637-1.921-2.688-2.366.068.813 1.276 1.888 1.897 2.518.827.903 1.075 1.247 2.109 1.477-.141-.834-.519-.898-1.318-1.629m-.691 407.784c-.909.91-1.865 1.658-2.271 2.834l.365.055c1.08-.814 1.244-1.063 2.121-2.128.868-.719 1.477-1.078 1.76-2.045-.943.135-1.106.543-1.975 1.284m-15.276 16.304c.912-.873 3.988-3.54 4.342-4.429l-.483-.326c-1.407 1.296-2.885 2.538-4.004 4.082.03.604-.098.413.145.673m1.382-437.58c.659.6 1.798 1.82 2.605 1.8-.387-.99-1.423-1.753-2.24-2.495-.703-.951-1.201-1.354-2.081-2.162l-.56.119.269.493-.028-.822-.322.021c.332 1.073 1.533 2.098 2.357 3.046m91.417 260.444c-.047 1.117-.213 2.368.159 3.391l.293.078c.129-1.134.197-1.698.17-2.829-.267-.317-.292-.402-.622-.64"/><path fill="#361310" d="M497.011 122.172c.594.768.74.81.822 1.781l-.29.112c-1.539-1.179-7.423-8.093-7.56-9.912l.516-.468c2.231 2.835 4.325 5.63 6.512 8.487"/><path fill="#fd2e1c" d="M523.067 197.473c.213 1.348.526 3.844.437 5.171-.234 1.391-.296 2.075-.342 3.486-.459-1.891-.516-5.884-.736-8.153z"/><path fill="#fe4d3b" d="M523.504 202.644c.206 1.439.628 3.867-.034 5.14-.421-.702-.276-.724-.308-1.654.046-1.411.108-2.095.342-3.486"/><path fill="#fe4d3b" d="M498.133 126.98c1.973 1.138 2.866 4.847 4.173 6.315 4.727 5.306 6.057 7.932 8.569 14.432 3.222 8.336 5.377 16.39 7.777 24.983-.748-.287-10.119-13.191-10.421-14.553-2.286-10.327-5.985-21.362-10.098-31.177"/><path fill="#ea1202" fill-opacity=".804" d="M599.099 309.359c.187 2.936-.014 7.368-.331 10.297l-.331-.188.291.429-.311-.294c-.197-2.352-.379-5.627-.14-7.981.122 1.247.214 2.141.448 3.368.058-1.846.1-3.438.327-5.27z"/><path fill="#ea1202" fill-opacity=".506" d="M431.93 31.774c1.189.562 6.558 3.027 6.95 3.933-2.515-1.036-4.339-1.866-6.756-3.108z"/><path fill="#ea1202" fill-opacity=".792" d="M598.274 286.678c-.13-2.747-.05-5.501.242-8.236.398 3.566.938 9.33.577 12.9-.232-2.164-.278-5.256-.382-7.497z"/><path fill="#ea1202" fill-opacity=".447" d="m598.274 286.678.437-2.833c.104 2.241.15 5.333.382 7.497-.08.953.055.625-.416 1.4-.642-.776-.414-4.886-.403-6.064"/><path fill="#ea1202" fill-opacity=".596" d="m506.334 515.266.483.326c-.354.889-3.43 3.556-4.342 4.429-.243-.26-.115-.069-.145-.673 1.119-1.544 2.597-2.786 4.004-4.082"/><path fill="#ea1202" fill-opacity=".337" d="M598.277 311.622c-.064-1.374-.243-3.168.424-4.365.413.797.358 1.212.398 2.102l-.047.361c-.227 1.832-.269 3.424-.327 5.27-.234-1.227-.326-2.121-.448-3.368"/><path fill="#ea1202" fill-opacity=".749" d="m597.514 268.624.214.231c.419 1.597.298 3.787.086 5.412-.359-.308-.405-.424-.694-.804-.19-1.693.139-3.147.394-4.839"/><path fill="#ea1202" fill-opacity=".486" d="m528.78 491.904.162.25c-.467 1.013-2.421 3.024-3.276 3.97l-.365-.312.002-.509c.852-1.182 2.358-2.4 3.477-3.399"/><path fill="#ea1202" fill-opacity=".6" d="M492.27 71.108c1.417.682 3.122 2.484 4.061 3.71-1.912-.187-3.219-2.132-4.061-3.71"/><path fill="#ea1202" fill-opacity=".357" d="m517.751 503.717.215.761c-.877 1.065-1.041 1.314-2.121 2.128l-.365-.055c.406-1.176 1.362-1.924 2.271-2.834"/><path fill="#ea1202" fill-opacity=".702" d="M432.124 32.599c-1.012-.453-2.945-1.248-3.489-2.16 1.081.056 2.291.82 3.295 1.334z"/><path fill="#ea1202" fill-opacity=".851" d="M503.857 82.441c-.824-.948-2.025-1.973-2.357-3.046l.322-.021.028.822-.269-.493.56-.12c.88.809 1.378 1.212 2.081 2.163z"/><path fill="#ea1202" fill-opacity=".435" d="m503.857 82.441.365-.695c.817.742 1.853 1.505 2.24 2.496-.807.018-1.946-1.2-2.605-1.8"/><path fill="#ea1202" fill-opacity=".424" d="M517.651 96.085c-.621-.63-1.829-1.705-1.897-2.518 1.051.445 1.881 1.51 2.688 2.366z"/><path fill="#ea1202" fill-opacity=".678" d="M517.751 503.717c.869-.741 1.032-1.149 1.975-1.284-.283.967-.892 1.326-1.76 2.045z"/><path fill="#ea1202" fill-opacity=".678" d="M595.274 342.885c.33.238.355.323.622.64.027 1.131-.041 1.695-.17 2.829l-.293-.078c-.372-1.023-.206-2.274-.159-3.391"/><path fill="#ea1202" fill-opacity=".757" d="M518.442 95.933c.799.731 1.177.795 1.318 1.63-1.034-.231-1.282-.575-2.109-1.478z"/><path fill="#ea1202" fill-opacity=".655" d="M595.427 253.964c.78.975.536 2.139.353 3.288-.934-1.228-.596-1.815-.353-3.288"/><path fill="#ea1202" fill-opacity=".761" d="m596.274 335.921.363.296c.38.967.119 2.038-.015 3.101l-.218-.201c-.396-1.01-.206-2.092-.13-3.196"/><defs><linearGradient id="a" x1="398.262" x2="436.269" y1="405.962" y2="168.311" gradientUnits="userSpaceOnUse"><stop offset="0" stop-color="#ee1403"/><stop offset="1" stop-color="#ff5140"/></linearGradient></defs><path fill="url(#a)" d="M382.421 172.451c25.891-8.817 56.251-8.695 81.14 3.357 7.163 3.468 14.656 8.752 19.666 14.988 3.513-1.156 5.818-1.972 9.517-2.373 11.195 5.638 14.758 22.398 18.56 33.448-9.934-2.488-11.163.037-19.84.923-2.643 4.732-7.749 12.468-5.964 17.854 2.284 6.89 6.13 14.244 9.891 20.493 1.448 2.404 3.667 5.211 4.924 7.515 1.168 2.305 1.513 3.245 2.986 5.421 2.222 3.281 4.906 5.979 6.344 9.675-2.018 2.062-3.513 2.744-6.077 4.018-8.1-3.632-12.216-6.519-20.969-2.889-3.823 1.586-6.793 2.891-10.555 4.78-3.051 2.328-11.407 10.371-14.829 5.539-.628-.888-1.132-2.499-2.02-2.967l-.508.152c-.209 11.733 7.476 13.162 17.183 13.183.954-.083 5.175 1.1 5.556 1.919 3 6.443 3.9 9.769 8.565 15.432a128 128 0 0 0 5.109-.907c-.424-11.868-.058-7.763 7.92-14.951 3.765-3.394 8.39-12.203 10.747-16.787 1.643 7.415 2.659 15.72 2.269 23.3-1.15 22.338-13.339 48.706-18.317 70.947-1.538 6.871-.375 14.001-1.463 20.938-.808 5.147-3.36 9.493-7.685 12.465-4.395 3.019-12.558.583-17.43-.427-19.133-3.97-62.147-16.983-77.827-28.668-4.433-3.303-7.723-7.454-10.735-12.046-.723-32.328-.703-64.669.06-96.997-16.169-5.284-33.189-16.782-44.238-29.594-3.226-3.741-6.655-10.39-8.586-14.914-2.317-4.316-2.922-11.618-3.402-16.463 3.008-5.224 8.543-13.264 12.53-17.665 11.478-12.669 31.153-23.906 47.478-28.699"/><defs><linearGradient id="b" x1="357.909" x2="464.578" y1="212.402" y2="220.445" gradientUnits="userSpaceOnUse"><stop offset="0" stop-color="#2b1615"/><stop offset="1" stop-color="#1a1b1c"/></linearGradient></defs><path fill="url(#b)" d="M322.413 218.815c3.008-5.224 8.543-13.264 12.53-17.665 11.478-12.669 31.153-23.906 47.478-28.699-2.162 1.68-3.423 3.48-5.785 5.786-7.297 7.122-14.959 14.451-18.933 24.104l-.026.255c.584.409.262.274.965.404 11.705-8.847 35.906-19.105 50.523-17.123 16.927 2.296 43.126 14.932 56.539 25.234.02 1.949-.01 4.248.106 6.163l-1.977 1.693c-2.018 1.141-3.994 2.205-6.196 2.967a113 113 0 0 1-6.574 13.848c-1.579 2.857-3.715 6.324-4.933 9.274-3.91-5.005-5.773-5.794-11.095-9.116 1.054 3.495 2.844 10.977 4.286 13.833l.174.585-.52.263c-4.92.082-10.014 1.311-15.08 1.618-18.211 1.102-31.47-5.418-46.845-13.838-8.062-3.883-17.834-7.519-26.652-9.1-9.434-1.691-16.907.571-24.583 5.977-2.317-4.316-2.922-11.618-3.402-16.463"/><path fill="#ea1202" d="M322.413 218.815c3.008-5.224 8.543-13.264 12.53-17.665 11.478-12.669 31.153-23.906 47.478-28.699-2.162 1.68-3.423 3.48-5.785 5.786-7.297 7.122-14.959 14.451-18.933 24.104l-.026.255c.584.409.262.274.965.404-1.11.956-2.328 1.968-3.408 2.943 12.545-5.033 29.913-9.758 43.443-9.309 7.981.264 20.509 7.108 26.499 12.354-11.638-1.474-27.702 1.974-38.356 6.647-12.182 5.343-16.756 10.473-31.204 6.209 4.962 4.026 12.021 7.687 17.858 10.437 2.323 1.094 5.571 1.698 7.75 3.08l-1.522.872c-1.216.681-1.745 1.083-2.652 2.168-8.062-3.883-17.834-7.519-26.652-9.1-9.434-1.691-16.907.571-24.583 5.977-2.317-4.316-2.922-11.618-3.402-16.463"/><path fill="#ea1202" d="M392.077 233.773c8.785-.975 32.688-6.76 34.631 7.351.232 1.68-.243 3.597-.821 5.195 1.822.512 12.452 3.607 13.434 3.454l.174.585-.52.263c-4.92.082-10.014 1.311-15.08 1.618-18.211 1.102-31.47-5.418-46.845-13.838.907-1.085 1.436-1.487 2.652-2.168l1.522-.872c10.635 6.488 22.177 10.839 34.817 11.077-10.206-3.902-14.981-5.964-23.964-12.665"/><path fill="#ea1202" d="M408.253 214.844c5.756-.328 16.969 1.497 20.506 6.469l-.153.38c-1.199.066-2.674-.744-3.889-1.052-5.695-1.441-11.762-1.135-17.595-1.079-5.803.131-11.146.652-16.8 1.966-1.199.279-2.412.787-3.608.736l-.118-.353c2.878-2.57 17.397-6.32 21.657-7.067"/><path fill="#ea1202" d="M463.833 218.967c-.885 1.011-1.58 2.239-1.357 3.592 1.284 7.78 4.413 15.487 5.905 23.263a245 245 0 0 1-8.595-2.458c-8.691 3.541-19.097 12.783-27.776 15.786 2.198-1.821 6.621-5.081 7.813-7.496l-.043-.606-.805-.427.52-.263-.174-.585c-1.442-2.856-3.232-10.338-4.286-13.833 5.322 3.322 7.185 4.111 11.095 9.116 1.218-2.95 3.354-6.417 4.933-9.274a113 113 0 0 0 6.574-13.848c2.202-.762 4.178-1.826 6.196-2.967"/><path fill="#ea1202" d="M456.476 287.725c.168 1.349.194 2.332.763 3.566 3.335 2.473 10.693-1.538 14.805-1.63-3.051 2.328-11.407 10.371-14.829 5.539-.628-.888-1.132-2.499-2.02-2.967l-.508.152c-.043-1.155 1.245-3.53 1.789-4.66"/><path fill="#1c1b1b" d="M474.294 322.628c5.373-.302 8.175 2.196 12.441 5.072 1.138-.048 5.142-.264 6.083-.027 6.211 1.564 5.378 12.308 5.115 17.198-.229 4.262-.972 8.924-1.819 13.191-2.954-4.46-3.149-8.616-7.872-12.806-2.317-.524-4.063-.548-6.546-1.331-3.884-1.225-7.666-3.16-11.664-3.735-5.705.128-11.139.865-16.763 1.855-8.747 1.541-11.862 2.966-20.627 1.788 9.726-7.068 30.086-19.27 41.652-21.205"/><path fill="#1c1b1b" d="M454.148 356.084c17.371-.791 22.108.037 38.755 6.051-2.549 3.603-6.118 8.051-7.063 12.314.097.948.3 1.853-.187 2.565-7.075-4.893-9.579-3.821-17.621-5.489-9.129-1.893-13.955-8.115-18.828-15.29 1.633.017 3.308-.082 4.944-.151"/><path fill="#ea1202" d="M287.771 36.713c18.294-4.407 40.414-4.726 57.441 4.144 3.149-1.03 6.888.24 10.334.25 3.266.009 4.685-.15 7.848-.888 29.623-8.045 53.629-6.315 78.259 12.937 6.231 4.87 11.244 8.86 15.357 15.906-.88.05-3.368.082-4.003.564-1.438.156-3.136.388-4.557.472-3.726 1.081-12.34 1.705-17.179 2.874a420 420 0 0 0-28.63 7.703 376.5 376.5 0 0 0-106.014 53.763 501 501 0 0 0-22.566 17.057c-3.603 2.887-7.581 6.812-11.307 9.253-2.388 1.565-8.23 1.452-11.447 2.57-6.779 2.357-12.908 5.281-19.291 8.529 10.044-14.951 19.058-27.336 33.373-38.727 4.08-3.246 7.897-5.755 12.087-8.757-6.503-.376-12.148-.672-18.626-.373-27.244 1.259-54.328 13.597-73.548 32.879-.877.88-2.759 3.068-3.807 3.443l-.315-.303c.897-2.375 3.248-5.55 4.469-7.906 1.922-3.706 3.951-7.235 6.101-10.812 3.973-6.612 8.83-12.623 13.696-18.593 1.556-1.91 5.527-6.444 7.429-7.768l-.625-.442c-8.647 6.071-15.887 11.381-23.619 18.76a137.8 137.8 0 0 0-40.037 76.203c-4.037 23.14-2.532 44.11 1.27 67.158.947 5.739 4.112 19.888 4.249 24.601 4.878-5.319 10.115-10.196 15.062-15.63l9.612-10.687c1.668-1.849 3.704-4.43 5.615-5.885l.408-.317.25-.184c-4.751 12.743-31.23 55.993-41.635 64.031l.761.754c13.382-9.043 26.882-19.089 38.55-30.284a335 335 0 0 0 11.312-11.426c1.621-1.747 7.076-8.4 8.093-9.053l.5.154c.077.612-.001.998-.246 1.566-10.602 24.634-32.075 43.172-54.087 57.474-10.702 6.954-22.376 11.875-33.777 17.156a80 80 0 0 0 6.355-7.69c4.71-6.427 21.814-31.363 22.825-38.732.343-2.494-.13-5.234-.335-7.734-.807-9.829-2.484-19.357-3.977-29.085-1.46-9.511-2.818-19.243-3.333-28.852-.286-5.321-.114-10.73-.113-16.06.001-4.442-.182-8.985.147-13.415 2.814-37.841 18.11-74.521 40.574-104.848 3.329-4.494 7.112-8.57 10.851-12.711 2.606-2.886 5.071-5.862 7.803-8.637 2.453-2.49 5.129-4.674 7.709-7.021 2.5-2.275 4.865-4.703 7.44-6.895 16.875-14.361 36.346-26.565 57.057-34.537 6.603-2.541 13.21-4.877 20.237-5.95"/><path fill="#fe4d3b" d="M287.771 36.713c18.294-4.407 40.414-4.726 57.441 4.144 3.149-1.03 6.888.24 10.334.25 3.266.009 4.685-.15 7.848-.888 29.623-8.045 53.629-6.315 78.259 12.937 6.231 4.87 11.244 8.86 15.357 15.906-.88.05-3.368.082-4.003.564-1.438.156-3.136.388-4.557.472-3.726 1.081-12.34 1.705-17.179 2.874a420 420 0 0 0-28.63 7.703c-2.65-.312-8.709-6.1-11.521-7.929-56.539-36.775-124.175-18.595-175.093 18.685a195.7 195.7 0 0 0-65.134 83.35c-2.579 6.28-5.95 14.839-7.187 21.573-.513-.511-.476-.476-.675-1.177 2.166-11.698 7.464-23.939 11.101-35.301 1.608-5.02 3.715-7.842 6.057-12.451a217.3 217.3 0 0 1 62.178-75.665c2.547-1.943 5.916-4.163 8.667-5.841 13.46-8.21 27.357-17.158 42.326-22.314 5.657-1.948 10.033-2.457 14.411-6.892"/><path fill="#ea1202" d="M431.271 72.972c-1.825-5.697-15.968-17.829-21.173-21.614-1.621-1.178-11.199-6.404-11.153-7.74 2.179-1.801 10.141.661 12.622 1.376 5.035 1.45 7.997 3.89 12.101 6.861 5.588 4.045 11.153 7.969 16.38 12.502 1.797 1.542 4.306 4.612 6.127 5.704.935-.034 1.347-.033 2.275.037-3.726 1.081-12.34 1.705-17.179 2.874"/><path fill="#fe4d3b" d="M141.435 207.983c-.412-2.558 1.092-9.955 1.596-12.806.199.701.162.666.675 1.177a250 250 0 0 0-2.271 11.629"/><path fill="#8f0f0b" d="m143.425 332.538.761.754c-1.311 1.188-2.527 1.871-4.019 2.803 1.014-1.318 1.913-2.571 3.258-3.557"/><path fill="#8f0f0b" d="M216.322 111.637c-1.034 1.326-2.084 2.31-3.447 3.293l-.625-.442c1.492-1.163 2.478-1.84 4.072-2.851"/><path fill="#fe4d3b" d="M468.843 75.593c3.654.796 20.989 25.782 23.983 31.026 2.976 5.213 8.07 14.989 10.809 20.764-1.537-1.135-5.425-5.218-6.022-5.461l-.602.25c-2.187-2.857-4.281-5.652-6.512-8.487-.902-2.109-5.817-9.28-7.297-11.443 1.539 6.154 3.591 11.738 5.491 17.714 1.42 4.47 1.703 10.331 2.909 14.913 1.64 7.536 2.93 13.5 3.645 21.184 7.362 4.784 12.979 9.284 18.928 15.786 3.643 3.982 5.494 4.66 6.658 10.335 1.035 5.049 1.273 10.341 2.234 15.299l-.641.504c-1.232-5.88-3.026-9.999-8.081-13.326-1.393-2.375-3.222-5.234-5.175-7.214-23.669-23.985-60.169-33.059-92.947-32.888-11.212.058-22.728 2.375-33.53 4.237-17.28 4.09-31.645 8.124-48.056 15.539-23.359 11.044-43.43 21.662-64.037 37.571-4.021 3.105-11.927 9.095-15.276 12.59-4.059-6.437-5.621-8.262-11.755-12.639 1.351-1.361 3.702-3.87 5.109-5.004l.085-.144c6.051-6.93 13.734-14.512 20.199-20.826a367.95 367.95 0 0 1 176.336-94.847c6.921-1.582 17.073-4.52 23.545-5.433"/><path fill="#ea1202" d="M356.311 124.359c31.71-16.264 57.436-26.967 93.137-32.328-11.363 5.022-24.118 8.805-35.79 13.65l.214.528c1.212 2.954 3.033 6.179 4.343 9.248 2.196 5.141 3.428 9.568 4.776 14.936.925.051 2.476.087 3.339.267-24.56.205-44.528 6.105-67.478 14.727 8.173-.9 16.274-4.622 25.956-5.694-3.395 1.416-6.081 3.088-9.337 4.451-9.675 4.049-21.388 8.329-30.564 13.24-2.826 1.141-8.402 3.783-10.278 6.019-.223.267-.388.302-.733.493l.741.429c-23.359 11.044-43.43 21.662-64.037 37.571-4.021 3.105-11.927 9.095-15.276 12.59-4.059-6.437-5.621-8.262-11.755-12.639 1.351-1.361 3.702-3.87 5.109-5.004-.389.848-1.313 1.863-1.199 2.555 4.452-3.987 8.922-7.484 13.489-11.301a597 597 0 0 1 63.072-46.531c9.052-5.786 22.114-13.987 32.271-17.207"/><path fill="#361310" d="M356.311 124.359c31.71-16.264 57.436-26.967 93.137-32.328-11.363 5.022-24.118 8.805-35.79 13.65a552 552 0 0 0-62.635 28.067c-19.448 10.053-38.457 20.798-56.167 33.714-3.568 2.602-9.637 6.666-12.843 9.415l-.451-.56c13.35-10.705 26.526-21.657 40.86-31.024a735 735 0 0 1 21.111-13.39c3.165-1.898 10.324-5.753 12.778-7.544"/><path fill="#8f0f0b" d="m281.562 176.317.451.56c-.927 1.116-4.421 3.571-5.662 4.426l-.162-.105c1.909-2.296 3.014-3.121 5.373-4.881"/><path fill="#ea1202" d="M466.387 85.546c6.197 16.296 9.812 34.733 14.813 51.522 1.362 4.572 2.204 9.512 3.583 14.083-1.938-1.278-9.4-4.496-9.93-5.058.483-.274.283-.077.562-.625-1.282-2.68-3.649-9.744-4.784-12.825a459 459 0 0 0-8.585-21.691c-.845-1.991-2.803-6.875-3.8-8.488l-.495.126c-1.409-2.727-2.972-7.764-3.96-10.815 1.843-.98 3.188-1.976 4.9-2.911 2.199-1.202 5.312-2.37 7.696-3.318"/><path fill="#361310" d="m457.751 102.59.495-.126c.997 1.613 2.955 6.497 3.8 8.488a459 459 0 0 1 8.585 21.691c1.135 3.081 3.502 10.145 4.784 12.825-.279.548-.079.351-.562.625-4.006-2.381-10.458-4.018-14.991-5.354-22.906-6.752-51.673-5.837-75.054-1.046-9.682 1.072-17.783 4.794-25.956 5.694 22.95-8.622 42.918-14.522 67.478-14.727 15.718.747 25.686 2.327 40.709 7.609-3.668-10.256-6.092-24.789-9.288-35.679"/><path fill="#fd2e1c" d="M344.907 157.384c-2.08 2.243-5.074 2.734-6.663 3.905l.17.183c2.072-.18 3.052-1.671 5.095-2.015 2.847-.478 5.482-1.908 8.257-2.731 9.33-2.766 21.115-7.964 30.927-7.94-17.28 4.09-31.645 8.124-48.056 15.539l-.741-.429c.345-.191.51-.226.733-.493 1.876-2.236 7.452-4.878 10.278-6.019"/><path fill="#ea1202" d="M333.12 598.2c1.632-1.488 4.99-6.31 6.408-8.249a1054 1054 0 0 0 12.125-16.85 1437 1437 0 0 0 47.58-70.758 1136 1136 0 0 0 15.648-25.794c2.264-3.914 6.208-11.626 8.576-14.933l.434-.06c.283.741-.037 6.658-.006 8.097.29 13.475 1.379 28.94 8.621 40.586 6.186 9.948 20.935 18.741 32.182 21.162l.447.094a254.8 254.8 0 0 1-43.728 35.841c-7.1 4.594-14.336 8.477-21.15 12.829l-.239.263c-1.244 1.354-1.769 1.808-3.421 2.567l.011.117c3.779-.337 6.248-2.324 9.48-1.925-1.326.522-6.532 2.629-7.652 2.791-14.659 6.081-36.205 10.966-51.93 13.628a87 87 0 0 1-10.958 1.227c-2.871.147-6.436-.255-8.936 1.167h-10.583c1.672-.976 13.515-1.202 17.091-1.8"/><path fill="#361310" d="M398.436 583.978c-1.748-.155-6.11 2.12-8.213 1.989.782-1.318 8.218-4.882 10.034-5.802l-.239.263c-1.244 1.354-1.769 1.808-3.421 2.567l.011.117c3.779-.337 6.248-2.324 9.48-1.925-1.326.522-6.532 2.629-7.652 2.791"/><path fill="#ea1202" d="M263.3 407.69c3.261 4.117 12.265 21.028 14.873 26.097 18.775 36.48 37.497 78.172 32.336 120.163-1.784 14.511-7.665 33.278-14.58 46.05h-10.811c.518-4.306.44-8.948.49-13.295.315-27.303-2.894-54.676-6.742-81.646a2081 2081 0 0 0-8.433-55.156l-3.705-24.054c-.973-6.278-1.773-12.022-3.428-18.159"/><path fill="#ea1202" d="M82.901 507.184c7.833-43.566 40.265-68.067 76.808-87.647 3.978-2.131 8.534-5.732 12.404-7.445l.292.35c-.646 1.079-5.1 5.445-6.384 6.766l-12.797 13.374c-19.966 21.067-39.361 46.336-48.791 73.945-1.11 3.248-4.885 14.463-4.285 17.304.446.57.682.722.849 1.381-8.6-6.903-14.992-12.995-21.81-21.582 1.538.935 2.504 2.205 3.714 3.554"/><path fill="#ea1202" d="M126.055 545.213c1.276-1.215 3.708-8.622 4.826-10.729 12.777-24.054 37.749-35.821 56.612-54.095 4.682-4.536 9.235-10.117 13.316-15.233 1.805-2.254 4.934-8.565 6.064-9.543l.44.028c.049 1.607-2.739 9.555-3.348 11.627-4.557 15.639-13.25 29.336-23.854 41.552-12.614 14.531-27.239 27.243-34.12 45.819-.879 2.374-.907 2.296 1.048 3.943-3.917-1.462-18.2-10.332-20.984-13.369"/><path fill="#fd2e1c" d="M340.892 2.126c8.083-.309 19.778 3.506 27.599 4.782-1.869 3.893-5.56 29.124-5.097 33.311-3.163.739-4.582.897-7.848.887-3.446-.01-7.185-1.279-10.334-.249a459 459 0 0 1-1.316-37.82c-1.265-.154-1.974-.245-3.203-.546z"/><path fill="#ea1202" d="M317.381 0h9.785c.793.532.957.723 1.851 1.053-1.416.216-3.212-.121-4.774.195-1.329.196-2.895 1.631-4.168 1.816-8.05 1.166-15.543 3.828-23.327 6.07-29.209 8.415-58.303 21.24-81.489 41.255-.993.857-4.158 3.25-5.413 3.111l-.111-.475c2.771-5.352 17.978-16.714 23.456-20.649C252.883 18.233 274.645 6.48 298.785 2.37c4.457-.759 15.552-.656 18.596-2.369"/><path fill="#ea1202" d="M186.127 577.824c.607-2.094 1.219-4.196 1.912-6.258 3.929-11.7 14.02-20.734 24.06-27.315.307-.201.914-.442 1.257-.582-9.119 11.121-14.099 21.934-13.16 36.708.146 2.297.734 2.763 2.511 3.954-5.962-1.396-17.943-6.111-23.42-9.016 1.759.306 5.14 1.743 6.84 2.509"/><path fill="#ea1202" d="M181.601 23.848c2.877-2.024 15.735-7.071 19.167-7.296-11.428 8.805-23.269 25.778-32.009 37.48-3.402 4.555-6.493 10.392-9.636 15.188-1.791 2.733-5.281 11.98-7.888 13.057-.482-.518-.358-.84-.342-1.535.179-7.863 19.523-36.954 25.119-43.885 3.347-4.493 7.882-10.318 11.542-14.505-1.968-.238-3.887 1.096-5.953 1.496"/><path fill="#fd2e1c" d="M187.554 22.352c1.371-.706 2.084-1.625 3.946-2.543-4.751 6.595-8.871 10.403-13.854 18.057-1.702-.461.151-.508-1.634-1.009 3.347-4.493 7.882-10.318 11.542-14.505"/><path fill="#fd2e1c" d="M506.96 252.752c-3.642-1.86-7.018-3.621-11.124-4.172-1.277-.172-3.533-.317-4.473-1.08l.061-.547c.29-.273.512-.493.863-.693 6.851-3.887 11.915-.676 15.377 5.692z"/><path fill="#ea1202" d="M298.387 206.982c1.118 8.85 2.87 15.119 5.8 23.497 8.657 21.053 24.558 38.481 44.364 49.351 4.291 2.355 7.546 4.342 12.153 6.294q1.352.566 2.732 1.062a2046 2046 0 0 0-1.291 128.986c.232 11.643.381 23.077 1.111 34.716.382 6.084.265 12.88 1.037 18.888-5.255-4.844-12.797-14.57-17.632-20.142-4.679-5.393-10.456-11.199-14.88-16.529-1.06-.712-6.141-6.565-7.344-7.829a1276 1276 0 0 0-18.219-18.57 735 735 0 0 0-57.344-50.566c.376-8.719 1.213-16.885 1.283-25.746.153-19.097-1.976-35.622-5.744-54.261a143 143 0 0 0 6.366-7.709c.741 4.165 2.043 8.636 2.938 12.824 1.476 6.907 2.904 13.914 4.045 20.881 2.66 16.245 2.131 33.105 1.767 49.519 8.604 5.74 17.402 13.558 25.257 20.295a648 648 0 0 1 35.166 32.125c5.416 5.361 11.131 11.058 15.999 16.929l.685-.448c-4.154-6.147-8.031-12.439-12.163-18.584-6.829-10.651-14.829-20.634-21.987-31.003-6.028-8.732-11.384-15.912-18.192-24.097-.267-6.193-.061-12.536-.157-18.74-.24-15.567.215-31.29.008-46.834 6.162 5.471 9.207 9.112 16.125 14.609-7.71-14.168-13.749-27.846-17.363-43.578-.69-3.005-2.12-6.077-2.618-9.099l.299-.421-.019-.012c.517.403 5.208 7.437 6.215 8.718a109 109 0 0 0 12.056 12.99c9.344 8.512 19.242 14.58 29.45 21.79 4.216 2.978 9.834 8.552 13.87 12.11a801 801 0 0 0 2.534 49.54c.995 11.983 2.482 23.945 3.205 35.97.248 4.129.58 8.937 1.392 12.956.308-3.079.096-8.351.055-11.565q-.212-11.033-.219-22.068.483-33.753 1.38-67.499c-18.485-7.872-27.655-14.209-39.518-30.738-11.768-16.397-17.535-31.351-21.349-51.056a342 342 0 0 1 8.747-6.956"/><path fill="#fe4d3b" d="M355.41 291.046c-22.924-10.587-44.707-28.02-51.24-53.764-.402-1.585-2.03-6.094-.986-7.147l1.003.344c8.657 21.053 24.558 38.481 44.364 49.351 4.291 2.355 7.546 4.342 12.153 6.294q1.352.566 2.732 1.062a2046 2046 0 0 0-1.291 128.986c.232 11.643.381 23.077 1.111 34.716.382 6.084.265 12.88 1.037 18.888-5.255-4.844-12.797-14.57-17.632-20.142-4.679-5.393-10.456-11.199-14.88-16.529l.443-.176c1.322 1.106 3.793 3.883 4.967 5.253 4.777 5.573 11.716 12.138 15.846 18.126l1.699-2.374c-3.951-5.838-14.024-15.279-19.185-21.125 4.23 2.967 16.972 17.618 20.318 21.772-1.861-15.864-1.756-33.819-2.048-49.766-.586-37.931-.056-75.87 1.589-113.769"/><path fill="#8f0f0b" d="M336.636 420.549c1.271 1.804 1.716 2.608 2.421 4.7-.756-1.007-2.542-3.278-3.106-4.252z"/><path fill="#ea1202" d="M207.501 212.817c3.821-1.831 12.354-4.709 15.059.652.888 1.76.557 4.452 1.277 6.472-4.543-1.191-7.693-1.838-12.283-.107-10.396 3.92-12.396 19.19-8.784 28.333.518-3.192.903-5.423 2.407-8.323.93-1.793 3.495-5.588 5.359-6.17l.338.403c-1.644 8.046 2.776 20.027 10.299 22.197 3.045.878 2.159 2.104 3.986 2.987 3.965 1.916 9.831-.719 12.986-2.643-.908 1.542-1.856 2.56-3.005 3.881-17.543 20.174-41.718 2.175-41.259-20.632.195-9.706 2.06-17.625 9.087-24.936 1.841-1.894 3.369-3.15 5.62-4.498-.45.825-.948 1.508-1.087 2.384"/><path fill="#fd2e1c" d="M202.968 214.931c1.841-1.894 3.369-3.15 5.62-4.498-.45.825-.948 1.508-1.087 2.384-1.305 1.116-2.035 1.86-3.591 2.616-.558-.23-.453-.155-.942-.502"/><path fill="#ea1202" d="M209.314 394.821c1.339-2.569 3.756-7.8 6.006-9.34l.424.152c.302 1.963-1.815 6.936-2.584 9.027-13.059 34.777-31.936 47.142-62.053 65.743l-.582-.006c.108-.771.404-1.14.978-1.709 14.148-13.997 28.228-28.239 41.671-42.92 3.321-3.626 6.449-7.671 9.482-11.539 2.21-2.851 4.495-6.693 6.658-9.408"/><path fill="#ea1202" d="M209.314 394.821c1.339-2.569 3.756-7.8 6.006-9.34l.424.152c.302 1.963-1.815 6.936-2.584 9.027l-.906-.481c-1.035.451-2.226 4.369-3.798 4.659l-.223-.39c.864-1.348 1.689-2.034 1.081-3.627"/><path fill="#fe4d3b" d="M208.588 210.433c3.097-2.285 7.448-3.309 11.234-3.736 12.252-1.382 24.346 11.68 24.79 23.473 1.259 5.234-.07 12.579-2.047 17.575-4.701-.217-6.087-.549-10.244-2.586 1.519-9.878.504-16.363-6.196-23.726l-2.288-1.492c-.72-2.02-.389-4.712-1.277-6.472-2.705-5.361-11.238-2.483-15.059-.652.139-.876.637-1.559 1.087-2.384"/><defs><linearGradient id="c" x1="244.513" x2="223.932" y1="243.234" y2="227.202" gradientUnits="userSpaceOnUse"><stop offset="0" stop-color="#d30900"/><stop offset="1" stop-color="#f51d06"/></linearGradient></defs><path fill="url(#c)" d="M226.125 221.433c8.635 1.233 9.521 3.444 9.448 11.942 2.781-.105 7.381.813 8.699-.225.515-.863.36-1.936.34-2.98 1.259 5.234-.07 12.579-2.047 17.575-4.701-.217-6.087-.549-10.244-2.586 1.519-9.878.504-16.363-6.196-23.726"/></svg>